# xmcd CD database file
#
# Track frame offsets:
#	150
#	12969
#	24282
#	38915
#	52056
#	65313
#	80099
#	93054
#	104507
#	119509
#
# Disc length: 1740 seconds
#
# Revision: 0
# Processed by: cddbd v1.5.2PL0 Copyright (c) Steve Scherf et al.
# Submitted via: CDex 1.51
#
DISCID=7b06ca0a
DTITLE=MARTY ROBBINS - Don't Let Me Touch You 
DYEAR=1900
DGENRE=Country
TTITLE0=Don't Let Me Touch You 
TTITLE1=Tomorrow, Tomorrow, Tomorrow 
TTITLE2=There's No More You And Me 
TTITLE3=Return To Me
TTITLE4=A Tree In The Meadow
TTITLE5=To Get  To You
TTITLE6=The Way I Loved You Best 
TTITLE7=More Than Anything (I Miss You) 
TTITLE8=Try A Little Tenderness 
TTITLE9=Harbor Lights
EXTD=
EXTT0=
EXTT1=
EXTT2=
EXTT3=
EXTT4=
EXTT5=
EXTT6=
EXTT7=
EXTT8=
EXTT9=
PLAYORDER=
